<?xml version="1.0" encoding="iso-8859-1"?>
<!-- Generator: Adobe Illustrator 19.0.0, SVG Export Plug-In . SVG Version: 6.00 Build 0)  -->
<svg version="1.1" id="Capa_1" xmlns="http://www.w3.org/2000/svg" x="0px" y="0px"
     viewBox="0 0 399.151 399.151" style="enable-background:new 0 0 399.151 399.151;" xml:space="preserve">
<g>
	<g>
		<g>
			<path d="M199.601,399.151c25.998-9.108,50.612-21.766,73.143-37.616L33.984,122.253
				C33.462,226.743,47.046,344.816,199.601,399.151z"/>
            <path d="M364.695,87.771c0-8.359-0.522-16.718-0.522-25.078C297.299,60.604,244.531,40.751,199.601,0
				c-19.154,17.781-41.251,32.1-65.306,42.318l214.204,214.204C366.784,202.188,365.74,142.106,364.695,87.771z"/>
            <path d="M35.029,62.694c0,7.837-0.522,16.718-0.522,25.078v5.747l254.955,254.955c21.929-19.564,39.391-43.619,51.2-70.531
				L112.874,50.155C87.581,57.701,61.412,61.917,35.029,62.694z"/>
		</g>
	</g>
</g>
    <g>
</g>
    <g>
</g>
    <g>
</g>
    <g>
</g>
    <g>
</g>
    <g>
</g>
    <g>
</g>
    <g>
</g>
    <g>
</g>
    <g>
</g>
    <g>
</g>
    <g>
</g>
    <g>
</g>
    <g>
</g>
    <g>
</g>
</svg>
