<svg height="512pt" viewBox="0 -51 512 512" width="512pt" xmlns="http://www.w3.org/2000/svg">
    <path d="m204.519531 185.78125c0 56.5-45.871093 102.460938-102.257812 102.460938-56.382813 0-102.261719-45.960938-102.261719-102.460938 0-56.488281 45.878906-102.449219 102.261719-102.449219 56.386719 0 102.257812 45.960938 102.257812 102.449219zm0 0"
          fill="#ffd60d"/>
    <path d="m204.519531 185.78125c0 56.5-45.871093 102.460938-102.257812 102.460938-56.382813 0-102.261719-45.960938-102.261719-102.460938zm0 0"
          fill="#ffbb10"/>
    <path d="m512 185.582031v.398438c-.058594 6.203125-2.730469 12.101562-7.351562 16.230469l-50.519532 45.101562c-2.859375 2.558594-6.429687 3.808594-9.980468 3.808594-4.128907 0-8.226563-1.6875-11.199219-5.007813-5.507813-6.179687-4.980469-15.660156 1.199219-21.179687l27.050781-24.152344h-336.390625c-8.277344 0-15-6.710938-15-15 0-8.277344 6.722656-15 15-15h336.390625l-27.050781-24.148438c-6.179688-5.511718-6.707032-15-1.199219-21.179687 5.519531-6.179687 15-6.710937 21.179687-1.199219l50.519532 45.109375c4.621093 4.128907 7.292968 10.027344 7.351562 16.21875zm0 0"
          fill="#ff7c10"/>
    <path d="m479.125 49.992188h-163.5c-8.285156 0-15 6.714843-15 15 0 8.285156 6.714844 15 15 15h163.5c8.28125 0 15-6.714844 15-15 0-8.285157-6.714844-15-15-15zm0 0"
          fill="#36f1ff"/>
    <path d="m207.367188 30h126.511718c8.285156 0 15-6.714844 15-15s-6.714844-15-15-15h-126.511718c-8.285157 0-15 6.714844-15 15s6.714843 15 15 15zm0 0"
          fill="#36f1ff"/>
    <path d="m383.605469 30h23.398437c8.28125 0 15-6.714844 15-15s-6.71875-15-15-15h-23.398437c-8.285157 0-15 6.714844-15 15s6.714843 15 15 15zm0 0"
          fill="#36f1ff"/>
    <path d="m252.71875 93.984375c0-8.28125-6.714844-15-15-15h-23.398438c-8.285156 0-15 6.71875-15 15 0 8.285156 6.714844 15 15 15h23.398438c8.285156 0 15-6.714844 15-15zm0 0"
          fill="#36f1ff"/>
    <g fill="#05dbdb">
        <path d="m234.351562 258.960938h23.402344c8.28125 0 15-6.714844 15-15 0-8.285157-6.71875-15-15-15h-23.402344c-8.28125 0-15 6.714843-15 15 0 8.285156 6.71875 15 15 15zm0 0"/>
        <path d="m178.394531 351.003906h-83.5c-8.285156 0-15 6.71875-15 15 0 8.285156 6.714844 15 15 15h83.5c8.285157 0 15-6.714844 15-15 0-8.28125-6.714843-15-15-15zm0 0"/>
        <path d="m251.519531 351.003906h-23.402343c-8.28125 0-15 6.71875-15 15 0 8.285156 6.71875 15 15 15h23.402343c8.285157 0 15-6.714844 15-15 0-8.28125-6.714843-15-15-15zm0 0"/>
        <path d="m366.652344 301.011719h-196.511719c-8.285156 0-15 6.71875-15 15 0 8.285156 6.714844 15 15 15h196.511719c8.285156 0 15-6.714844 15-15 0-8.28125-6.714844-15-15-15zm0 0"/>
        <path d="m359.699219 380h-23.398438c-8.28125 0-15 6.714844-15 15s6.71875 15 15 15h23.398438c8.285156 0 15-6.714844 15-15s-6.714844-15-15-15zm0 0"/>
    </g>
    <path d="m512 185.78125v.199219c-.058594 6.203125-2.730469 12.101562-7.351562 16.230469l-50.519532 45.101562c-2.859375 2.558594-6.429687 3.808594-9.980468 3.808594-4.128907 0-8.226563-1.6875-11.199219-5.007813-5.507813-6.179687-4.980469-15.660156 1.199219-21.179687l27.050781-24.152344h-336.390625c-8.277344 0-15-6.710938-15-15zm0 0"
          fill="#ff4412"/>
</svg>